<svg height="59" viewBox="0 0 215 59" width="215" xmlns="http://www.w3.org/2000/svg" xmlns:xlink="http://www.w3.org/1999/xlink"><mask id="a" fill="#fff"><path d="m0 .639h8.19v12.361h-8.19z" fill="#fff" fill-rule="evenodd"/></mask><mask id="b" fill="#fff"><path d="m.14.639h8.19v12.361h-8.19z" fill="#fff" fill-rule="evenodd"/></mask><g fill="none" fill-rule="evenodd"><path d="m168.66.67h4.15l10.28 37.95h-10.43l-6.81-25.1zm-3.75 16.84 5.55 21.11h-10.27zm16.33-16.84h4.15l10.28 37.95h-10.43l-6.82-25.1z" fill="#ed1c24"/><g fill="#002a5c"><path d="m200.06.67 2.74 10.01h9.95l2.23-10.01zm12.24 12.01-2.25 10.11h-3.98l-2.73-10.11zm-14.36-12.01 10.28 37.95h-10.43l-10.38-37.95zm-74.57-.06-37.64.02-1.58 7.02h13.89l-6.99 31.23h9.64l7.01-31.23 14.04-.02z"/><path d="m157.07 3.45c-5.09-3.24-9.12-3.35-12.66-3.44-15.96-.4-27.73 10.52-28.65 22.8-.73 9.81 6.58 16.39 19.33 16.19 6.74-.11 10.54-1.42 15.6-3.63l1.92-8.92c-6.08 3.17-11.27 4.66-15.93 4.66-3.87 0-10.83-2.62-10.58-8.89.27-6.61 4.29-14.01 17.78-14.08 3.34-.02 7.01.73 11.37 3.97l1.82-8.66zm-106.32-2.84h-9.55l-8.56 38.26h9.59zm-28.15.03-1.56 7.07h14.58l1.58-7.07zm-3.21 14.86-1.62 7.13h12.56l1.62-7.13zm1.09-14.86h-9.98l-8.46 38.25h9.95zm24.02 38.3 21.04-38.39 3.19 11.7-6.52 12.08h9.82l1.81 6.91h-15.33l-4.1 7.7zm23.23-38.39 10.41 38.25h10.04l-10.87-38.25z"/><path d="m8.19 1.11-.39 1.65c-.64-.43-1.37-.64-2.17-.64-.68 0-1.24.17-1.67.5-.44.33-.68.77-.72 1.32-.02.27.05.55.22.85s.69.81 1.57 1.52c.88.72 1.44 1.34 1.7 1.89.25.54.36 1.08.31 1.62-.07.86-.48 1.61-1.22 2.24s-1.68.94-2.82.94c-1.01 0-2.01-.29-3-.86l.42-1.77c1.09.77 2.05 1.15 2.88 1.15.45 0 .89-.14 1.32-.42s.66-.66.7-1.13c.03-.31-.05-.62-.22-.95-.18-.33-.7-.86-1.58-1.59s-1.44-1.36-1.68-1.9-.34-1.07-.29-1.6c.08-.93.55-1.72 1.42-2.35.87-.63 1.85-.94 2.96-.94.74-.01 1.5.15 2.26.47" mask="url(#a)" transform="translate(0 45.35)"/><path d="m40.4 46.14-.33 1.43h-5.09l-.88 3.78h4.49l-.33 1.43h-4.52l-.95 3.98h5.27l-.35 1.43h-6.93l2.89-12.06h6.73zm32.93 6.83-1.03 4.33c-1.44.7-2.84 1.05-4.2 1.05-1.63 0-2.89-.51-3.76-1.52-.88-1.02-1.25-2.27-1.12-3.78.17-1.91 1.07-3.57 2.7-4.97 1.64-1.4 3.84-2.1 6.63-2.1.55 0 1.27.05 2.19.15l-.33 1.45c-.99-.1-1.74-.15-2.24-.15-2.08 0-3.76.56-5.03 1.67s-1.98 2.41-2.1 3.9c-.1 1.15.16 2.09.78 2.81s1.47 1.09 2.55 1.09c.81 0 1.64-.19 2.49-.58l.48-2.09h-1.81l.3-1.27h3.5zm35.57-6.83-1.74 7.44c-.37 1.57-1.04 2.75-2.01 3.56s-2.21 1.21-3.7 1.21c-1.32 0-2.35-.34-3.08-1.02s-1.05-1.59-.95-2.72c.02-.24.06-.47.12-.72l1.83-7.76h1.67l-1.86 7.89c-.04.17-.07.33-.08.48-.07.74.14 1.33.62 1.75s1.13.64 1.95.64c.71 0 1.35-.16 1.92-.478.57-.321.98-.721 1.23-1.201s.48-1.2.71-2.16l1.63-6.93h1.74v.02zm26.31 1.43-.89 3.88h.89c.96 0 1.71-.19 2.25-.569.53-.38.83-.9.89-1.55.1-1.17-.61-1.75-2.14-1.75h-1v-.01zm-1.41-1.43h2.29c1.68 0 2.79.321 3.34.951s.78 1.41.7 2.32a2.965 2.965 0 0 1 -.84 1.85c-.5.53-1.17.89-2.02 1.1.36.23.67.68.94 1.33l1.88 4.51h-1.82l-1.21-2.87c-.38-.9-.72-1.54-1.01-1.9-.29-.37-.77-.55-1.43-.55h-.67l-1.24 5.32h-1.75l2.84-12.06zm34.19 10.76c1.18 0 2.25-.6 3.23-1.8.97-1.2 1.53-2.65 1.68-4.349.09-1.04-.09-1.85-.54-2.44s-1.11-.89-1.96-.89c-1.31 0-2.43.62-3.36 1.86a8.064 8.064 0 0 0 -1.6 4.2c-.09 1.05.09 1.88.56 2.49.46.63 1.13.93 1.99.93m2.55-10.92c1.34 0 2.38.46 3.13 1.39s1.05 2.15.92 3.67c-.18 2.09-.94 3.84-2.26 5.23-1.33 1.39-2.83 2.08-4.5 2.08-1.32 0-2.37-.48-3.13-1.42-.77-.95-1.09-2.17-.96-3.66.16-1.86.88-3.54 2.17-5.04s2.83-2.25 4.63-2.25"/><path d="m8.33 1.11-.39 1.65c-.64-.43-1.37-.64-2.17-.64-.68 0-1.24.17-1.67.5-.44.33-.68.77-.72 1.32-.02.27.05.55.22.85s.69.81 1.57 1.52c.88.72 1.44 1.34 1.7 1.89.25.54.36 1.08.31 1.62-.07.86-.48 1.61-1.22 2.24s-1.68.94-2.82.94c-1.01 0-2.01-.29-3-.86l.42-1.77c1.09.77 2.05 1.15 2.88 1.15.45 0 .89-.14 1.32-.42s.66-.66.7-1.13c.03-.31-.05-.62-.22-.95-.18-.33-.7-.86-1.58-1.59s-1.44-1.36-1.68-1.9-.34-1.07-.29-1.6c.08-.93.55-1.72 1.42-2.35.87-.63 1.85-.94 2.96-.94.75-.01 1.51.15 2.26.47" mask="url(#b)" transform="translate(198 45.35)"/></g></g></svg>