<svg xmlns="http://www.w3.org/2000/svg" width="140" height="24" viewBox="0 0 140 24" fill="none"><path d="M0 23.4816H3.91798V13.9513H15.5793V10.5496H3.91798V3.49455H16.8103V0.0927734H0V23.4816Z" fill="black"></path><path d="M32.4145 0.0923307H28.5098V20.675C28.5098 21.5222 28.7613 22.1972 29.2775 22.7134C29.7937 23.2296 30.4953 23.4811 31.3821 23.4811H45.1215V20.0661H32.4278V0.0791016L32.4145 0.0923307Z" fill="black"></path><path d="M59.8406 10.854L53.4871 0.0927734H49.2515L57.9081 14.4279V23.4816H61.7864V14.4279L70.4298 0.0927734H66.1941L59.8406 10.854Z" fill="black"></path><path d="M97.8433 17.4322C97.5256 16.3866 97.155 15.5394 96.7182 14.8776C96.3608 14.3349 95.8843 13.8981 95.3416 13.5142C97.4594 12.2436 98.8757 9.94041 98.8757 7.29312C98.8757 3.28248 95.6328 0.0395508 91.6222 0.0395508L80.4771 0.0792585V1.07199C80.4771 2.72655 81.8007 4.06342 83.4553 4.06342H91.6222C93.3958 4.06342 94.8386 5.50621 94.8386 7.27989C94.8386 9.05358 93.4091 10.4831 91.6486 10.4963C91.6486 10.4963 91.6354 10.4963 91.6222 10.4963C89.8352 10.4963 86.2084 10.4963 83.4553 10.4963C81.8007 10.4963 80.4771 11.8332 80.4771 13.4878V14.4673V23.4548H84.3818V14.5599H90.3911C91.1986 14.5599 91.9001 14.8246 92.4958 15.3673C93.0914 15.8968 93.5414 16.6645 93.8326 17.6705L95.6328 23.4548H99.6832L97.8168 17.4058L97.8433 17.4322Z" fill="black"></path><path d="M128.246 6.00934C129.906 6.00934 131.251 4.6641 131.251 3.00466C131.251 1.34522 129.906 0 128.246 0C126.587 0 125.242 1.34522 125.242 3.00466C125.242 4.6641 126.587 6.00934 128.246 6.00934Z" fill="#6E73F9"></path><path d="M119.537 6.00934C121.196 6.00934 122.542 4.6641 122.542 3.00466C122.542 1.34522 121.196 0 119.537 0C117.877 0 116.532 1.34522 116.532 3.00466C116.532 4.6641 117.877 6.00934 119.537 6.00934Z" fill="#6E73F9"></path><path d="M119.537 23.4283C121.196 23.4283 122.542 22.0831 122.542 20.4236C122.542 18.7642 121.196 17.4189 119.537 17.4189C117.877 17.4189 116.532 18.7642 116.532 20.4236C116.532 22.0831 117.877 23.4283 119.537 23.4283Z" fill="black"></path><path d="M119.537 14.7188C121.196 14.7188 122.542 13.3736 122.542 11.7142C122.542 10.0547 121.196 8.70947 119.537 8.70947C117.877 8.70947 116.532 10.0547 116.532 11.7142C116.532 13.3736 117.877 14.7188 119.537 14.7188Z" fill="#6E73F9"></path><path d="M138.862 14.0571C138.968 13.9644 139.113 13.8056 139.166 13.7526C139.656 13.2232 139.974 12.5084 139.974 11.7142C139.974 10.8274 139.59 10.0332 138.981 9.49049C138.915 9.42431 138.835 9.34488 138.769 9.2787C138.399 8.89484 137.75 8.1536 137.75 7.37265C137.75 6.51228 138.518 5.70485 138.875 5.3607C138.981 5.26805 139.127 5.10921 139.179 5.05627C139.669 4.52681 139.987 3.81205 139.987 3.01786C139.987 1.36331 138.637 0.0131836 136.982 0.0131836C135.328 0.0131836 133.978 1.36331 133.978 3.01786C133.978 3.81205 134.282 4.52681 134.785 5.05627C134.838 5.10921 135.036 5.29452 135.195 5.4666C135.566 5.85045 136.215 6.5917 136.215 7.37265C136.215 8.23302 135.447 9.04045 135.089 9.38459C135.05 9.4243 134.997 9.47725 134.944 9.5302C134.348 10.0729 133.991 10.8671 133.991 11.7274C133.991 12.5216 134.295 13.2364 134.798 13.7659C134.851 13.8188 135.05 14.0041 135.209 14.1762C135.579 14.56 136.228 15.3013 136.228 16.0822C136.228 16.9426 135.46 17.75 135.103 18.0942C134.997 18.1868 134.851 18.3457 134.798 18.3986C134.308 18.9281 133.991 19.6428 133.991 20.437C133.991 22.0916 135.341 23.4417 136.995 23.4417C138.65 23.4417 140 22.0916 140 20.437C140 19.6428 139.696 18.9281 139.193 18.3986C139.14 18.3457 138.941 18.1604 138.782 17.9883C138.412 17.6044 137.763 16.8632 137.763 16.0822C137.763 15.2219 138.531 14.4144 138.888 14.0703L138.862 14.0571Z" fill="black"></path><path d="M126.459 17.975C126.83 17.5911 127.479 16.8499 127.479 16.069C127.479 15.2086 126.711 14.4012 126.354 14.057C126.248 13.9644 126.102 13.8055 126.049 13.7526C125.559 13.2231 125.242 12.5083 125.242 11.7142C125.242 10.0596 126.592 8.70947 128.246 8.70947C129.901 8.70947 131.251 10.0596 131.251 11.7142C131.251 12.5083 130.947 13.2231 130.444 13.7526C130.391 13.8055 130.192 13.9908 130.033 14.1629C129.663 14.5468 129.014 15.288 129.014 16.069C129.014 16.9293 129.782 17.7367 130.139 18.0809C130.245 18.1735 130.391 18.3324 130.444 18.3853C130.933 18.9148 131.251 19.6296 131.251 20.4237C131.251 22.0783 129.901 23.4284 128.246 23.4284C126.592 23.4284 125.242 22.0783 125.242 20.4237C125.242 19.6296 125.546 18.9148 126.049 18.3853C126.102 18.3324 126.301 18.1471 126.459 17.975Z" fill="black"></path></svg>